<?xml version="1.0" standalone="no"?>
<!DOCTYPE svg PUBLIC "-//W3C//DTD SVG 20010904//EN"
 "http://www.w3.org/TR/2001/REC-SVG-20010904/DTD/svg10.dtd">
<svg version="1.0" xmlns="http://www.w3.org/2000/svg"
 width="1080.000000pt" height="1080.000000pt" viewBox="0 0 1080.000000 1080.000000"
 preserveAspectRatio="xMidYMid meet">
<metadata>
Created by potrace 1.16, written by Peter Selinger 2001-2019
</metadata>
<g transform="translate(0.000000,1080.000000) scale(0.100000,-0.100000)"
fill="#000000" stroke="none">
<path d="M5370 10264 c-862 -41 -1529 -197 -2175 -509 -501 -243 -990 -612
-1333 -1010 -48 -55 -90 -102 -93 -105 -16 -14 -233 -308 -283 -385 -629 -965
-903 -2171 -770 -3390 97 -885 403 -1699 880 -2343 48 -64 90 -119 93 -122 3
-3 45 -50 93 -105 93 -108 273 -287 378 -376 74 -64 232 -184 261 -199 19 -11
19 16 19 2085 0 2087 0 2096 21 2193 269 1253 1057 2104 2224 2402 268 69 527
103 863 116 105 4 192 7 193 8 2 4 145 1732 143 1734 -3 5 -430 10 -514 6z"/>
<path d="M5355 7009 c-479 -45 -908 -298 -1152 -679 -300 -467 -334 -1158 -81
-1620 309 -564 1015 -859 1733 -723 231 43 491 161 667 302 214 171 364 388
453 656 132 398 103 896 -74 1254 -229 465 -676 759 -1231 810 -129 12 -184
12 -315 0z m385 -254 c186 -32 410 -129 555 -237 77 -59 223 -200 251 -244 10
-16 37 -54 59 -85 134 -184 215 -456 215 -724 0 -223 -40 -395 -135 -585 -186
-372 -539 -635 -944 -704 -122 -21 -330 -21 -452 0 -470 81 -867 424 -1018
882 -63 188 -79 439 -42 643 77 428 362 788 761 963 90 40 234 83 319 95 96
15 339 12 431 -4z"/>
<path d="M5296 6614 c-81 -16 -145 -36 -243 -76 -73 -30 -73 -30 -73 -68 0
-21 -3 -45 -6 -54 -5 -12 1 -16 23 -16 45 0 63 -28 71 -107 l7 -68 54 4 c45 2
60 8 82 32 24 26 34 29 87 29 33 0 89 -9 124 -20 49 -16 78 -19 133 -14 l70 6
67 -66 c58 -57 72 -66 103 -66 20 0 48 -6 64 -14 39 -21 96 -87 112 -130 10
-28 18 -36 39 -36 39 0 184 -54 246 -91 136 -83 167 -158 96 -240 -57 -66 -69
-89 -74 -144 -6 -70 -53 -186 -87 -219 -19 -18 -45 -29 -79 -35 -29 -4 -61
-16 -72 -26 -10 -9 -39 -59 -63 -109 -56 -115 -98 -172 -142 -193 -21 -10 -35
-24 -35 -35 0 -32 -59 -88 -101 -94 -35 -6 -42 -12 -59 -52 -11 -25 -36 -65
-56 -88 -26 -32 -38 -59 -46 -104 -5 -33 -21 -76 -34 -96 -13 -19 -24 -40 -24
-47 0 -7 -9 -27 -20 -44 l-20 -33 109 0 c525 0 1002 400 1111 931 40 193 21
458 -46 635 -146 388 -469 662 -882 749 -92 19 -339 19 -436 -1z"/>
<path d="M4690 6283 c-60 -23 -215 -258 -274 -417 -91 -242 -89 -577 5 -814
111 -279 314 -504 574 -635 50 -25 226 -90 230 -85 4 5 -16 110 -31 160 -8 26
-14 56 -14 68 0 28 26 76 45 83 18 7 20 43 4 53 -21 13 -3 179 34 314 44 157
57 227 57 305 l0 62 -59 46 c-85 67 -215 277 -227 369 -9 66 11 143 51 198 19
26 35 50 35 54 0 3 -10 6 -23 6 -43 0 -131 54 -199 122 -37 37 -74 68 -81 68
-8 0 -35 11 -61 25 -26 14 -48 25 -49 24 -1 0 -9 -3 -17 -6z"/>
<path d="M8269 4028 c-163 -282 -396 -577 -652 -824 -335 -323 -654 -507
-1132 -653 -633 -193 -1375 -240 -2097 -135 l-48 7 0 -850 0 -849 149 -37
c318 -80 586 -111 936 -111 517 1 956 76 1505 256 239 78 486 181 724 300 834
417 1526 1015 1913 1651 106 175 229 441 248 542 6 30 6 30 -137 102 -79 40
-222 113 -318 163 -96 50 -267 139 -380 197 -331 171 -470 243 -557 289 -45
24 -87 44 -91 44 -5 0 -34 -42 -63 -92z"/>
</g>
</svg>
